<?xml version="1.0" standalone="no"?>
<!DOCTYPE svg PUBLIC "-//W3C//DTD SVG 20010904//EN"
 "http://www.w3.org/TR/2001/REC-SVG-20010904/DTD/svg10.dtd">
<svg version="1.0" xmlns="http://www.w3.org/2000/svg"
 width="622.000000pt" height="622.000000pt" viewBox="0 0 622.000000 622.000000"
 preserveAspectRatio="xMidYMid meet">
<metadata>
Created by potrace 1.14, written by Peter Selinger 2001-2017
</metadata>
<g transform="translate(0.000000,622.000000) scale(0.100000,-0.100000)"
fill="#000000" stroke="none">
<path d="M4265 6188 c-63 -49 -178 -376 -220 -621 -5 -30 -10 -37 -23 -33 -37
11 -689 27 -882 21 -374 -11 -948 -50 -1051 -71 -25 -5 -28 -1 -58 87 -87 247
-231 444 -352 480 -74 23 -112 -19 -142 -156 -26 -117 -36 -278 -48 -775 l-11
-475 -36 -30 c-380 -312 -669 -735 -822 -1206 -43 -131 -96 -357 -86 -366 4
-4 135 -14 292 -22 l286 -16 75 -100 c335 -446 738 -786 1228 -1035 148 -76
405 -182 518 -215 l59 -17 91 44 c180 88 580 372 813 579 167 147 571 549 714
709 124 140 170 205 226 325 l43 92 158 47 c86 25 226 61 310 79 141 30 152
34 147 52 -3 11 -43 97 -89 190 -138 283 -287 487 -516 710 -74 72 -179 164
-234 205 -55 41 -103 79 -106 83 -3 5 -9 52 -13 105 -26 384 -154 1272 -191
1328 -19 30 -44 30 -80 2z m314 -2705 c-1 -32 -4 -95 -7 -140 l-7 -82 -156
-148 c-197 -187 -404 -403 -589 -614 -247 -282 -528 -549 -774 -734 l-76 -57
-20 23 c-10 13 -19 27 -20 30 0 14 -168 146 -330 259 -261 183 -620 454 -750
566 -63 55 -181 165 -262 246 l-148 147 0 175 c0 96 4 177 8 180 13 8 552 73
832 101 694 67 1321 100 1968 103 l332 2 -1 -57z"/>
<path d="M3035 3377 c-95 -32 -146 -75 -147 -126 -2 -50 21 -79 96 -126 108
-67 116 -69 168 -36 88 56 141 136 136 208 -4 66 -33 85 -135 90 -47 2 -94 -2
-118 -10z"/>
<path d="M3447 2936 c-81 -129 -184 -184 -266 -142 -27 15 -101 89 -101 104 0
4 -5 14 -10 22 -7 12 -20 2 -66 -48 -59 -65 -100 -92 -171 -111 -84 -23 -218
33 -324 135 -36 35 -70 64 -76 64 -21 0 -23 -32 -4 -58 10 -15 24 -52 31 -82
22 -96 81 -272 120 -356 81 -176 176 -280 287 -314 147 -45 245 -11 299 105
43 92 27 297 -35 446 l-28 67 51 -24 c63 -30 117 -30 174 -3 77 38 209 189
195 225 -11 29 -47 15 -76 -30z"/>
<path d="M5500 3037 c-204 -130 -447 -311 -625 -465 -88 -76 -258 -250 -290
-297 -66 -96 -65 -81 -65 -983 l0 -813 46 31 c101 70 255 200 355 299 398 399
654 916 735 1486 24 165 24 488 0 650 -20 137 -26 165 -35 165 -3 0 -58 -33
-121 -73z"/>
<path d="M504 2448 c16 -220 73 -487 148 -693 84 -234 237 -510 396 -715 91
-116 287 -316 405 -411 138 -111 380 -270 391 -258 6 6 -353 1832 -361 1840
-11 10 -530 198 -683 247 -111 36 -179 55 -274 77 l-29 6 7 -93z"/>
</g>
</svg>
